200.ufo
<glyph name="exclam" format="1">
  <advance width="517.400"/>
  <unicode hex="0021"/>
  <outline>
    <contour>
      <point x="240" y="403" type="line"/>
      <point x="269" y="403" type="line"/>
      <point x="316" y="1426" type="line"/>
      <point x="316" y="1481" type="line"/>
      <point x="189" y="1481" type="line"/>
      <point x="189" y="1426" type="line"/>
    </contour>
    <contour>
      <point x="261" y="-17" type="curve" smooth="yes"/>
      <point x="336" y="-17"/>
      <point x="350" y="30"/>
      <point x="350" y="70" type="curve" smooth="yes"/>
      <point x="350" y="108"/>
      <point x="336" y="156"/>
      <point x="261" y="156" type="curve" smooth="yes"/>
      <point x="187" y="156"/>
      <point x="174" y="108"/>
      <point x="174" y="70" type="curve" smooth="yes"/>
      <point x="174" y="33"/>
      <point x="187" y="-17"/>
    </contour>
  </outline>
</glyph>
<glyph name="dollar" format="1">
  <advance width="1190"/>
  <unicode hex="0024"/>
  <outline>
    <contour>
      <point x="599" y="1709" type="line"/>
      <point x="599" y="1444" type="line"/>
      <point x="660" y="1444" type="line"/>
      <point x="660" y="1709" type="line"/>
    </contour>
    <contour>
      <point x="589" y="8" type="line"/>
      <point x="589" y="-335" type="line"/>
      <point x="650" y="-335" type="line"/>
      <point x="650" y="8" type="line"/>
    </contour>
    <component base="S"/>
  </outline>
</glyph>
<glyph name="percent" format="1">
  <advance width="1825.600"/>
  <unicode hex="0025"/>
  <outline>
    <contour>
      <point x="422" y="777" type="curve" smooth="yes"/>
      <point x="249" y="777"/>
      <point x="173" y="908"/>
      <point x="173" y="1088" type="curve" smooth="yes"/>
      <point x="173" y="1264"/>
      <point x="248" y="1397"/>
      <point x="422" y="1397" type="curve" smooth="yes"/>
      <point x="593" y="1397"/>
      <point x="668" y="1270"/>
      <point x="668" y="1088" type="curve" smooth="yes"/>
      <point x="668" y="913"/>
      <point x="594" y="777"/>
    </contour>
    <contour>
      <point x="419" y="711" type="curve" smooth="yes"/>
      <point x="641" y="711"/>
      <point x="750" y="876"/>
      <point x="750" y="1088" type="curve" smooth="yes"/>
      <point x="750" y="1303"/>
      <point x="644" y="1463"/>
      <point x="419" y="1463" type="curve" smooth="yes"/>
      <point x="199" y="1463"/>
      <point x="88" y="1300"/>
      <point x="88" y="1088" type="curve" smooth="yes"/>
      <point x="88" y="876"/>
      <point x="195" y="711"/>
    </contour>
    <contour>
      <point x="450" y="0" type="line"/>
      <point x="546" y="0" type="line"/>
      <point x="1369" y="1455" type="line"/>
      <point x="1282" y="1455" type="line"/>
    </contour>
    <contour>
      <point x="1391" y="53" type="curve" smooth="yes"/>
      <point x="1218" y="53"/>
      <point x="1142" y="184"/>
      <point x="1142" y="364" type="curve" smooth="yes"/>
      <point x="1142" y="540"/>
      <point x="1217" y="673"/>
      <point x="1391" y="673" type="curve" smooth="yes"/>
      <point x="1562" y="673"/>
      <point x="1637" y="546"/>
      <point x="1637" y="364" type="curve" smooth="yes"/>
      <point x="1637" y="189"/>
      <point x="1563" y="53"/>
    </contour>
    <contour>
      <point x="1389" y="-13" type="curve" smooth="yes"/>
      <point x="1611" y="-13"/>
      <point x="1720" y="152"/>
      <point x="1720" y="364" type="curve" smooth="yes"/>
      <point x="1720" y="579"/>
      <point x="1614" y="739"/>
      <point x="1389" y="739" type="curve" smooth="yes"/>
      <point x="1169" y="739"/>
      <point x="1058" y="576"/>
      <point x="1058" y="364" type="curve" smooth="yes"/>
      <point x="1058" y="152"/>
      <point x="1165" y="-13"/>
    </contour>
  </outline>
</glyph>
<glyph name="slash" format="1">
  <advance width="1021.400"/>
  <unicode hex="002F"/>
  <outline>
    <contour>
      <point x="129" y="-154" type="line"/>
      <point x="174" y="-154" type="line"/>
      <point x="908" y="1560" type="line"/>
      <point x="861" y="1560" type="line"/>
    </contour>
  </outline>
</glyph>
<glyph name="one" format="1">
  <advance width="1196"/>
  <unicode hex="0031"/>
  <outline>
    <contour>
      <point x="239" y="0" type="line"/>
      <point x="1049" y="0" type="line"/>
      <point x="1049" y="71" type="line"/>
      <point x="675" y="71" type="line"/>
      <point x="712" y="34" type="line"/>
      <point x="711" y="1456" type="line"/>
      <point x="614" y="1456" type="line"/>
      <point x="543" y="1406"/>
      <point x="339" y="1350"/>
      <point x="284" y="1345" type="curve"/>
      <point x="284" y="1269" type="line"/>
      <point x="348" y="1275"/>
      <point x="568" y="1332"/>
      <point x="655" y="1396" type="curve"/>
      <point x="619" y="1409" type="line"/>
      <point x="619" y="37" type="line"/>
      <point x="654" y="71" type="line"/>
      <point x="239" y="71" type="line"/>
    </contour>
  </outline>
</glyph>
<glyph name="two" format="1">
  <advance width="1196"/>
  <unicode hex="0032"/>
  <outline>
    <contour>
      <point x="175" y="1311" type="line"/>
      <point x="290" y="1375"/>
      <point x="417" y="1409"/>
      <point x="543" y="1409" type="curve" smooth="yes"/>
      <point x="675" y="1409"/>
      <point x="912" y="1361"/>
      <point x="912" y="1076" type="curve" smooth="yes"/>
      <point x="912" y="859"/>
      <point x="826" y="805"/>
      <point x="676" y="652" type="curve" smooth="yes"/>
      <point x="104" y="69" type="line"/>
      <point x="142" y="0" type="line"/>
      <point x="1010" y="0" type="line"/>
      <point x="1013" y="71" type="line"/>
      <point x="171" y="71" type="line"/>
      <point x="174" y="34" type="line"/>
      <point x="744" y="612" type="line"/>
      <point x="937" y="808"/>
      <point x="997" y="865"/>
      <point x="997" y="1096" type="curve" smooth="yes"/>
      <point x="997" y="1404"/>
      <point x="670" y="1476"/>
      <point x="536" y="1476" type="curve" smooth="yes"/>
      <point x="377" y="1476"/>
      <point x="220" y="1421"/>
      <point x="137" y="1370" type="curve"/>
      <point x="165" y="1311" type="line"/>
    </contour>
  </outline>
</glyph>
<glyph name="five" format="1">
  <advance width="1196"/>
  <unicode hex="0035"/>
  <outline>
    <contour>
      <point x="189" y="149" type="line"/>
      <point x="161" y="87" type="line"/>
      <point x="304" y="1"/>
      <point x="432" y="-20"/>
      <point x="547" y="-20" type="curve" smooth="yes"/>
      <point x="808" y="-20"/>
      <point x="1060" y="132"/>
      <point x="1060" y="466" type="curve" smooth="yes"/>
      <point x="1060" y="693"/>
      <point x="917" y="899"/>
      <point x="602" y="899" type="curve" smooth="yes"/>
      <point x="478" y="899"/>
      <point x="397" y="869"/>
      <point x="289" y="801" type="curve"/>
      <point x="300" y="782" type="line"/>
      <point x="343" y="1385" type="line"/>
      <point x="983" y="1385" type="line"/>
      <point x="992" y="1456" type="line"/>
      <point x="279" y="1456" type="line"/>
      <point x="227" y="718" type="line"/>
      <point x="319" y="713" type="line"/>
      <point x="380" y="778"/>
      <point x="498" y="825"/>
      <point x="616" y="825" type="curve" smooth="yes"/>
      <point x="887" y="825"/>
      <point x="969" y="647"/>
      <point x="969" y="459" type="curve" smooth="yes"/>
      <point x="969" y="185"/>
      <point x="763" y="53"/>
      <point x="538" y="53" type="curve" smooth="yes"/>
      <point x="439" y="53"/>
      <point x="326" y="74"/>
      <point x="200" y="149" type="curve"/>
    </contour>
  </outline>
</glyph>
<glyph name="eight" format="1">
  <advance width="1196"/>
  <unicode hex="0038"/>
  <outline>
    <contour>
      <point x="597" y="-20" type="curve" smooth="yes"/>
      <point x="854" y="-20"/>
      <point x="1047" y="98"/>
      <point x="1047" y="347" type="curve" smooth="yes"/>
      <point x="1047" y="543"/>
      <point x="915" y="703"/>
      <point x="692" y="755" type="curve"/>
      <point x="887" y="809"/>
      <point x="1011" y="931"/>
      <point x="1011" y="1123" type="curve" smooth="yes"/>
      <point x="1011" y="1338"/>
      <point x="857" y="1476"/>
      <point x="599" y="1476" type="curve" smooth="yes"/>
      <point x="338" y="1476"/>
      <point x="182" y="1338"/>
      <point x="182" y="1123" type="curve" smooth="yes"/>
      <point x="182" y="934"/>
      <point x="318" y="795"/>
      <point x="500" y="752" type="curve"/>
      <point x="268" y="686"/>
      <point x="149" y="566"/>
      <point x="149" y="346" type="curve" smooth="yes"/>
      <point x="149" y="97"/>
      <point x="345" y="-20"/>
    </contour>
    <contour>
      <point x="597" y="55" type="curve" smooth="yes"/>
      <point x="349" y="55"/>
      <point x="220" y="158"/>
      <point x="220" y="358" type="curve" smooth="yes"/>
      <point x="220" y="558"/>
      <point x="386" y="665"/>
      <point x="597" y="706" type="curve"/>
      <point x="812" y="665"/>
      <point x="970" y="547"/>
      <point x="970" y="358" type="curve" smooth="yes"/>
      <point x="970" y="146"/>
      <point x="855" y="55"/>
    </contour>
    <contour>
      <point x="597" y="791" type="curve"/>
      <point x="381" y="837"/>
      <point x="273" y="957"/>
      <point x="273" y="1130" type="curve" smooth="yes"/>
      <point x="273" y="1297"/>
      <point x="402" y="1398"/>
      <point x="597" y="1398" type="curve" smooth="yes"/>
      <point x="795" y="1398"/>
      <point x="919" y="1297"/>
      <point x="919" y="1130" type="curve" smooth="yes"/>
      <point x="919" y="957"/>
      <point x="818" y="837"/>
    </contour>
  </outline>
</glyph>
<glyph name="nine" format="1">
  <advance width="1196"/>
  <unicode hex="0039"/>
  <outline>
    <contour>
      <point x="362" y="0" type="line"/>
      <point x="457" y="0" type="line"/>
      <point x="784" y="438" type="line" smooth="yes"/>
      <point x="949" y="658"/>
      <point x="1054" y="798"/>
      <point x="1054" y="1032" type="curve" smooth="yes"/>
      <point x="1054" y="1240"/>
      <point x="925" y="1476"/>
      <point x="623" y="1476" type="curve" smooth="yes"/>
      <point x="340" y="1476"/>
      <point x="186" y="1267"/>
      <point x="186" y="1035" type="curve" smooth="yes"/>
      <point x="186" y="779"/>
      <point x="396" y="614"/>
      <point x="601" y="614" type="curve" smooth="yes"/>
      <point x="720" y="614"/>
      <point x="844" y="651"/>
      <point x="918" y="716" type="curve"/>
      <point x="906" y="730" type="line"/>
      <point x="747" y="522" type="line"/>
      <point x="362" y="8" type="line"/>
    </contour>
    <contour>
      <point x="613" y="693" type="curve" smooth="yes"/>
      <point x="398" y="693"/>
      <point x="266" y="840"/>
      <point x="266" y="1034" type="curve" smooth="yes"/>
      <point x="266" y="1220"/>
      <point x="390" y="1403"/>
      <point x="623" y="1403" type="curve" smooth="yes"/>
      <point x="861" y="1403"/>
      <point x="977" y="1225"/>
      <point x="977" y="1042" type="curve" smooth="yes"/>
      <point x="977" y="742"/>
      <point x="713" y="693"/>
    </contour>
  </outline>
</glyph>
<glyph name="semicolon" format="1">
  <advance width="448.800"/>
  <unicode hex="003B"/>
  <outline>
    <contour>
      <point x="171" y="-293" type="curve"/>
      <point x="205" y="-293" type="line"/>
      <point x="205" y="-293"/>
      <point x="282" y="118"/>
      <point x="282" y="168" type="curve" smooth="yes"/>
      <point x="282" y="195" type="line"/>
      <point x="174" y="195" type="line"/>
      <point x="174" y="70"/>
      <point x="171" y="-293"/>
    </contour>
    <contour>
      <point x="228" y="884" type="curve" smooth="yes"/>
      <point x="292" y="884"/>
      <point x="303" y="928"/>
      <point x="303" y="962" type="curve" smooth="yes"/>
      <point x="303" y="996"/>
      <point x="292" y="1039"/>
      <point x="228" y="1039" type="curve" smooth="yes"/>
      <point x="161" y="1039"/>
      <point x="152" y="996"/>
      <point x="152" y="962" type="curve" smooth="yes"/>
      <point x="152" y="929"/>
      <point x="164" y="884"/>
    </contour>
  </outline>
</glyph>
<glyph name="less" format="1">
  <advance width="1228.600"/>
  <unicode hex="003C"/>
  <outline>
    <contour>
      <point x="1052" y="105" type="line"/>
      <point x="1052" y="105"/>
      <point x="1055" y="185"/>
      <point x="1055" y="185" type="curve" smooth="yes"/>
      <point x="199" y="585" type="line"/>
      <point x="1057" y="1006" type="line"/>
      <point x="1057" y="1094" type="line"/>
      <point x="117" y="610" type="line"/>
      <point x="117" y="553" type="line"/>
    </contour>
  </outline>
</glyph>
<glyph name="question" format="1">
  <advance width="901.800"/>
  <unicode hex="003F"/>
  <outline>
    <contour>
      <point x="336" y="391" type="curve"/>
      <point x="382" y="391" type="line"/>
      <point x="482" y="772"/>
      <point x="725" y="924"/>
      <point x="725" y="1221" type="curve" smooth="yes"/>
      <point x="725" y="1396"/>
      <point x="593" y="1515"/>
      <point x="405" y="1515" type="curve" smooth="yes"/>
      <point x="286" y="1515"/>
      <point x="185" y="1476"/>
      <point x="116" y="1428" type="curve"/>
      <point x="124" y="1340" type="line"/>
      <point x="162" y="1365"/>
      <point x="282" y="1430"/>
      <point x="391" y="1430" type="curve" smooth="yes"/>
      <point x="538" y="1430"/>
      <point x="629" y="1368"/>
      <point x="629" y="1213" type="curve"/>
      <point x="629" y="940"/>
      <point x="329" y="620"/>
    </contour>
    <contour>
      <point x="365" y="-17" type="curve" smooth="yes"/>
      <point x="440" y="-17"/>
      <point x="456" y="30"/>
      <point x="456" y="70" type="curve" smooth="yes"/>
      <point x="456" y="108"/>
      <point x="440" y="156"/>
      <point x="365" y="156" type="curve" smooth="yes"/>
      <point x="291" y="156"/>
      <point x="279" y="108"/>
      <point x="279" y="70" type="curve" smooth="yes"/>
      <point x="279" y="33"/>
      <point x="290" y="-17"/>
    </contour>
  </outline>
</glyph>
<glyph name="at" format="1">
  <advance width="2149.8"/>
  <unicode hex="0040"/>
  <outline>
    <contour>
      <point x="1049" y="-255" type="curve" smooth="yes"/>
      <point x="1256" y="-255"/>
      <point x="1437" y="-205"/>
      <point x="1578" y="-111" type="curve"/>
      <point x="1549" y="-52" type="line"/>
      <point x="1406" y="-139"/>
      <point x="1233" y="-185"/>
      <point x="1054" y="-185" type="curve" smooth="yes"/>
      <point x="635" y="-185"/>
      <point x="304" y="79"/>
      <point x="304" y="591" type="curve" smooth="yes"/>
      <point x="304" y="1094"/>
      <point x="675" y="1438"/>
      <point x="1121" y="1438" type="curve" smooth="yes"/>
      <point x="1529" y="1438"/>
      <point x="1838" y="1166"/>
      <point x="1838" y="746" type="curve" smooth="yes"/>
      <point x="1838" y="502"/>
      <point x="1722" y="271"/>
      <point x="1537" y="271" type="curve" smooth="yes"/>
      <point x="1411" y="271"/>
      <point x="1366" y="377"/>
      <point x="1366" y="489" type="curve" smooth="yes"/>
      <point x="1366" y="623"/>
      <point x="1375" y="728"/>
      <point x="1430" y="1033" type="curve"/>
      <point x="1337" y="1061"/>
      <point x="1237" y="1091"/>
      <point x="1132" y="1091" type="curve" smooth="yes"/>
      <point x="836" y="1091"/>
      <point x="670" y="859"/>
      <point x="670" y="559" type="curve" smooth="yes"/>
      <point x="670" y="315"/>
      <point x="789" y="183"/>
      <point x="972" y="183" type="curve" smooth="yes"/>
      <point x="1154" y="183"/>
      <point x="1276" y="344"/>
      <point x="1323" y="576" type="curve"/>
      <point x="1297" y="576" type="line"/>
      <point x="1297" y="290"/>
      <point x="1393" y="211"/>
      <point x="1537" y="211" type="curve" smooth="yes"/>
      <point x="1722" y="211"/>
      <point x="1916" y="388"/>
      <point x="1916" y="746" type="curve" smooth="yes"/>
      <point x="1916" y="1221"/>
      <point x="1580" y="1512"/>
      <point x="1122" y="1512" type="curve" smooth="yes"/>
      <point x="588" y="1512"/>
      <point x="214" y="1121"/>
      <point x="214" y="589" type="curve" smooth="yes"/>
      <point x="214" y="56"/>
      <point x="536" y="-255"/>
    </contour>
    <contour>
      <point x="986" y="257" type="curve" smooth="yes"/>
      <point x="860" y="257"/>
      <point x="767" y="345"/>
      <point x="767" y="563" type="curve" smooth="yes"/>
      <point x="767" y="846"/>
      <point x="919" y="1025"/>
      <point x="1140" y="1025" type="curve" smooth="yes"/>
      <point x="1179" y="1025"/>
      <point x="1272" y="1009"/>
      <point x="1334" y="995" type="curve"/>
      <point x="1279" y="681" type="line" smooth="yes"/>
      <point x="1241" y="466"/>
      <point x="1151" y="257"/>
    </contour>
  </outline>
</glyph>
<glyph name="A" format="1">
  <advance width="1267.4"/>
  <unicode hex="0041"/>
  <outline>
    <contour>
      <point x="606" y="1455" type="line"/>
      <point x="49" y="0" type="line"/>
      <point x="133" y="0" type="line"/>
      <point x="345" y="550" type="line"/>
      <point x="297" y="515" type="line"/>
      <point x="986" y="515" type="line"/>
      <point x="937" y="548" type="line"/>
      <point x="1143" y="0" type="line"/>
      <point x="1218" y="0" type="line"/>
      <point x="661" y="1455" type="line"/>
    </contour>
    <contour>
      <point x="608" y="1406" type="line"/>
      <point x="935" y="553" type="line"/>
      <point x="968" y="582" type="line"/>
      <point x="319" y="582" type="line"/>
      <point x="346" y="553" type="line"/>
      <point x="657" y="1406" type="line"/>
    </contour>
    <contour>
      <point x="1182" y="0" type="move" name="ogonek"/>
    </contour>
    <contour>
      <point x="634" y="0" type="move" name="bot"/>
    </contour>
    <contour>
      <point x="634" y="1455" type="move" name="top"/>
    </contour>
  </outline>
</glyph>
<glyph name="C" format="1">
  <advance width="1308.6"/>
  <unicode hex="0043"/>
  <outline>
    <contour>
      <point x="397" y="1476"/>
      <point x="147" y="1187"/>
      <point x="147" y="728" type="curve" smooth="yes"/>
      <point x="147" y="269"/>
      <point x="397" y="-20"/>
      <point x="794" y="-20" type="curve" smooth="yes"/>
      <point x="1003" y="-20"/>
      <point x="1184" y="100"/>
      <point x="1264" y="292" type="curve"/>
      <point x="1209" y="316" type="line"/>
      <point x="1197" y="316" type="line"/>
      <point x="1125" y="151"/>
      <point x="970" y="47"/>
      <point x="794" y="47" type="curve" smooth="yes"/>
      <point x="449" y="47"/>
      <point x="233" y="310"/>
      <point x="233" y="728" type="curve" smooth="yes"/>
      <point x="233" y="1146"/>
      <point x="449" y="1409"/>
      <point x="794" y="1409" type="curve" smooth="yes"/>
      <point x="970" y="1409"/>
      <point x="1125" y="1305"/>
      <point x="1197" y="1140" type="curve"/>
      <point x="1211" y="1140" type="line"/>
      <point x="1264" y="1164" type="line"/>
      <point x="1184" y="1356"/>
      <point x="1003" y="1476"/>
      <point x="794" y="1476" type="curve" smooth="yes"/>
    </contour>
    <contour>
      <point x="830" y="0" type="move" name="bot"/>
    </contour>
    <contour>
      <point x="824" y="1455" type="move" name="top"/>
    </contour>
  </outline>
</glyph>
<glyph name="D" format="1">
  <advance width="1527.600"/>
  <unicode hex="0044"/>
  <outline>
    <contour>
      <point x="223" y="0" type="line"/>
      <point x="1137" y="-60"/>
      <point x="1381" y="159"/>
      <point x="1381" y="729" type="curve" smooth="yes"/>
      <point x="1381" y="1315"/>
      <point x="1133" y="1526"/>
      <point x="223" y="1456" type="curve"/>
    </contour>
    <contour>
      <point x="262" y="1387" type="line"/>
      <point x="1070" y="1437"/>
      <point x="1295" y="1269"/>
      <point x="1295" y="724" type="curve" smooth="yes"/>
      <point x="1295" y="211"/>
      <point x="1071" y="4"/>
      <point x="262" y="67" type="curve"/>
      <point x="309" y="23" type="line"/>
      <point x="309" y="1433" type="line"/>
    </contour>
    <contour>
      <point x="764" y="0" type="move" name="bot"/>
    </contour>
    <contour>
      <point x="269" y="752" type="move" name="mid"/>
    </contour>
    <contour>
      <point x="764" y="1455" type="move" name="top"/>
    </contour>
  </outline>
</glyph>
<glyph name="F" format="1">
  <advance width="1044"/>
  <unicode hex="0046"/>
  <outline>
    <contour>
      <point x="223" y="1455" type="line"/>
      <point x="223" y="0" type="line"/>
      <point x="314" y="0" type="line"/>
      <point x="314" y="720" type="line"/>
      <point x="273" y="701" type="line"/>
      <point x="926" y="701" type="line"/>
      <point x="926" y="764" type="line"/>
      <point x="265" y="764" type="line"/>
      <point x="314" y="731" type="line"/>
      <point x="314" y="1432" type="line"/>
      <point x="266" y="1388" type="line"/>
      <point x="968" y="1388" type="line"/>
      <point x="976" y="1455" type="line"/>
    </contour>
    <contour>
      <point x="522" y="0" type="move" name="bot"/>
    </contour>
    <contour>
      <point x="522" y="1455" type="move" name="top"/>
    </contour>
  </outline>
</glyph>
<glyph name="G" format="1">
  <advance width="1488.400"/>
  <unicode hex="0047"/>
  <outline>
    <contour>
      <point x="856" y="-18" type="curve" smooth="yes"/>
      <point x="1055" y="-18"/>
      <point x="1186" y="11"/>
      <point x="1327" y="60" type="curve"/>
      <point x="1327" y="715" type="line"/>
      <point x="902" y="715" type="line"/>
      <point x="890" y="631" type="line"/>
      <point x="1287" y="631" type="line"/>
      <point x="1239" y="680" type="line"/>
      <point x="1239" y="60" type="line"/>
      <point x="1272" y="111" type="line"/>
      <point x="1206" y="84"/>
      <point x="1029" y="51"/>
      <point x="874" y="51" type="curve" smooth="yes"/>
      <point x="458" y="51"/>
      <point x="232" y="319"/>
      <point x="232" y="721" type="curve" smooth="yes"/>
      <point x="232" y="1167"/>
      <point x="533" y="1402"/>
      <point x="867" y="1402" type="curve" smooth="yes"/>
      <point x="1001" y="1402"/>
      <point x="1139" y="1364"/>
      <point x="1266" y="1288" type="curve"/>
      <point x="1275" y="1288" type="line"/>
      <point x="1300" y="1354" type="line"/>
      <point x="1153" y="1435"/>
      <point x="1002" y="1473"/>
      <point x="860" y="1473" type="curve" smooth="yes"/>
      <point x="470" y="1473"/>
      <point x="146" y="1188"/>
      <point x="146" y="720" type="curve" smooth="yes"/>
      <point x="146" y="313"/>
      <point x="385" y="-18"/>
    </contour>
    <contour>
      <point x="865" y="0" type="move" name="bot"/>
    </contour>
    <contour>
      <point x="860" y="1455" type="move" name="top"/>
    </contour>
  </outline>
</glyph>
<glyph name="I" format="1">
  <advance width="734"/>
  <unicode hex="0049"/>
  <outline>
    <contour>
      <point x="113" y="1455" type="line"/>
      <point x="113" y="1398" type="line"/>
      <point x="353" y="1398" type="line"/>
      <point x="325" y="1434" type="line"/>
      <point x="325" y="15" type="line"/>
      <point x="359" y="57" type="line"/>
      <point x="113" y="57" type="line"/>
      <point x="113" y="0" type="line"/>
      <point x="623" y="0" type="line"/>
      <point x="623" y="57" type="line"/>
      <point x="379" y="57" type="line"/>
      <point x="411" y="17" type="line"/>
      <point x="411" y="1431" type="line"/>
      <point x="383" y="1398" type="line"/>
      <point x="623" y="1398" type="line"/>
      <point x="623" y="1455" type="line"/>
    </contour>
    <contour>
      <point x="391" y="0" type="move" name="ogonek"/>
    </contour>
    <contour>
      <point x="367" y="0" type="move" name="bot"/>
    </contour>
    <contour>
      <point x="367" y="1455" type="move" name="top"/>
    </contour>
  </outline>
</glyph>
<glyph name="M" format="1">
  <advance width="1762.200"/>
  <unicode hex="004D"/>
  <outline>
    <contour>
      <point x="206" y="0" type="line"/>
      <point x="284" y="0" type="line"/>
      <point x="284" y="584" type="line"/>
      <point x="296" y="1403" type="line"/>
      <point x="283" y="1403" type="line"/>
      <point x="846" y="133" type="line"/>
      <point x="922" y="133" type="line"/>
      <point x="1485" y="1403" type="line"/>
      <point x="1468" y="1403" type="line"/>
      <point x="1480" y="586" type="line"/>
      <point x="1480" y="0" type="line"/>
      <point x="1558" y="0" type="line"/>
      <point x="1558" y="584" type="line"/>
      <point x="1539" y="1455" type="line"/>
      <point x="1425" y="1455" type="line"/>
      <point x="873" y="196" type="line"/>
      <point x="896" y="196" type="line"/>
      <point x="344" y="1455" type="line"/>
      <point x="221" y="1455" type="line"/>
      <point x="206" y="584" type="line"/>
    </contour>
    <contour>
      <point x="881" y="0" type="move" name="bot"/>
    </contour>
    <contour>
      <point x="881" y="1455" type="move" name="top"/>
    </contour>
  </outline>
</glyph>
<glyph name="N" format="1">
  <advance width="1543.800"/>
  <unicode hex="004E"/>
  <outline>
    <contour>
      <point x="1254" y="1455" type="line"/>
      <point x="1254" y="468" type="line"/>
      <point x="1260" y="46" type="line"/>
      <point x="1299" y="52" type="line"/>
      <point x="292" y="1455" type="line"/>
      <point x="223" y="1455" type="line"/>
      <point x="223" y="0" type="line"/>
      <point x="291" y="0" type="line"/>
      <point x="291" y="998" type="line"/>
      <point x="281" y="1423" type="line"/>
      <point x="249" y="1396" type="line"/>
      <point x="1250" y="0" type="line"/>
      <point x="1321" y="0" type="line"/>
      <point x="1321" y="1455" type="line"/>
    </contour>
    <contour>
      <point x="772" y="0" type="move" name="bot"/>
    </contour>
    <contour>
      <point x="772" y="1455" type="move" name="top"/>
    </contour>
  </outline>
</glyph>
<glyph name="S" format="1">
  <advance width="1190.154"/>
  <unicode hex="0053"/>
  <outline>
    <contour>
      <point x="599" y="-19" type="curve" smooth="yes"/>
      <point x="849" y="-19"/>
      <point x="1051" y="66"/>
      <point x="1071" y="360" type="curve" smooth="yes"/>
      <point x="1087" y="623"/>
      <point x="908" y="687"/>
      <point x="726" y="763" type="curve" smooth="yes"/>
      <point x="492" y="859" type="line" smooth="yes"/>
      <point x="301" y="937"/>
      <point x="244" y="969"/>
      <point x="244" y="1133" type="curve" smooth="yes"/>
      <point x="244" y="1347"/>
      <point x="464" y="1413"/>
      <point x="643" y="1413" type="curve" smooth="yes"/>
      <point x="816" y="1413"/>
      <point x="916" y="1334"/>
      <point x="964" y="1297" type="curve"/>
      <point x="973" y="1297" type="line"/>
      <point x="1000" y="1346" type="line"/>
      <point x="949" y="1398"/>
      <point x="813" y="1474"/>
      <point x="642" y="1474" type="curve" smooth="yes"/>
      <point x="442" y="1474"/>
      <point x="168" y="1412"/>
      <point x="168" y="1121" type="curve" smooth="yes"/>
      <point x="168" y="923"/>
      <point x="283" y="867"/>
      <point x="474" y="790" type="curve" smooth="yes"/>
      <point x="710" y="694" type="line" smooth="yes"/>
      <point x="949" y="599"/>
      <point x="1008" y="541"/>
      <point x="999" y="355" type="curve" smooth="yes"/>
      <point x="987" y="132"/>
      <point x="839" y="48"/>
      <point x="599" y="48" type="curve" smooth="yes"/>
      <point x="389" y="48"/>
      <point x="293" y="107"/>
      <point x="197" y="193" type="curve"/>
      <point x="190" y="193" type="line"/>
      <point x="154" y="143" type="line"/>
      <point x="190" y="104"/>
      <point x="307" y="-19"/>
    </contour>
    <contour>
      <point x="619" y="0" type="move" name="bot"/>
    </contour>
    <contour>
      <point x="615" y="1455" type="move" name="top"/>
    </contour>
  </outline>
</glyph>
<glyph name="X" format="1">
  <advance width="1308"/>
  <unicode hex="0058"/>
  <outline>
    <contour>
      <point x="1086" y="1455" type="line"/>
      <point x="650" y="772" type="line"/>
      <point x="619" y="738" type="line"/>
      <point x="119" y="0" type="line"/>
      <point x="206" y="0" type="line"/>
      <point x="665" y="685" type="line"/>
      <point x="691" y="716" type="line"/>
      <point x="1169" y="1455" type="line"/>
    </contour>
    <contour>
      <point x="136" y="1455" type="line"/>
      <point x="1092" y="0" type="line"/>
      <point x="1165" y="0" type="line"/>
      <point x="215" y="1455" type="line"/>
    </contour>
  </outline>
</glyph>
<glyph name="Y" format="1">
  <advance width="1195.6"/>
  <unicode hex="0059"/>
  <outline>
    <contour>
      <point x="1057" y="1455" type="line"/>
      <point x="602" y="653" type="line"/>
      <point x="642" y="653" type="line"/>
      <point x="136" y="1455" type="line"/>
      <point x="64" y="1455" type="line"/>
      <point x="621" y="552" type="line"/>
      <point x="582" y="674" type="line"/>
      <point x="582" y="0" type="line"/>
      <point x="661" y="0" type="line"/>
      <point x="661" y="671" type="line"/>
      <point x="626" y="556" type="line"/>
      <point x="1131" y="1455" type="line"/>
    </contour>
    <contour>
      <point x="624" y="0" type="move" name="bot"/>
    </contour>
    <contour>
      <point x="598" y="1455" type="move" name="top"/>
    </contour>
  </outline>
</glyph>
<glyph name="Z" format="1">
  <advance width="1203.800"/>
  <unicode hex="005A"/>
  <outline>
    <contour>
      <point x="148" y="0" type="line"/>
      <point x="1071" y="0" type="line"/>
      <point x="1084" y="67" type="line"/>
      <point x="173" y="67" type="line"/>
      <point x="189" y="28" type="line"/>
      <point x="1078" y="1387" type="line"/>
      <point x="1066" y="1455" type="line"/>
      <point x="199" y="1455" type="line"/>
      <point x="199" y="1386" type="line"/>
      <point x="1037" y="1386" type="line"/>
      <point x="1012" y="1408" type="line"/>
      <point x="148" y="84" type="line"/>
    </contour>
    <contour>
      <point x="642" y="0" type="move" name="bot"/>
    </contour>
    <contour>
      <point x="662" y="1455" type="move" name="top"/>
    </contour>
  </outline>
</glyph>
<glyph name="bracketleft" format="1">
  <advance width="616.800"/>
  <unicode hex="005B"/>
  <outline>
    <contour>
      <point x="179" y="-224" type="line"/>
      <point x="601" y="-224" type="line"/>
      <point x="601" y="-159" type="line"/>
      <point x="259" y="-159" type="line"/>
      <point x="259" y="1492" type="line"/>
      <point x="601" y="1492" type="line"/>
      <point x="601" y="1560" type="line"/>
      <point x="179" y="1560" type="line"/>
    </contour>
  </outline>
</glyph>
<glyph name="backslash" format="1">
  <advance width="982.200"/>
  <unicode hex="005C"/>
  <outline>
    <contour>
      <point x="744" y="-72" type="line"/>
      <point x="797" y="-72" type="line"/>
      <point x="194" y="1458" type="line"/>
      <point x="143" y="1458" type="line"/>
    </contour>
  </outline>
</glyph>
<glyph name="bracketright" format="1">
  <advance width="620.400"/>
  <unicode hex="005D"/>
  <outline>
    <contour>
      <point x="48" y="-224" type="line"/>
      <point x="468" y="-224" type="line"/>
      <point x="468" y="1560" type="line"/>
      <point x="48" y="1560" type="line"/>
      <point x="48" y="1492" type="line"/>
      <point x="388" y="1492" type="line"/>
      <point x="388" y="-158" type="line"/>
      <point x="48" y="-158" type="line"/>
    </contour>
  </outline>
</glyph>
<glyph name="asciicircum" format="1">
  <advance width="1247"/>
  <unicode hex="005E"/>
  <outline>
    <contour>
      <point x="581" y="1456" type="line"/>
      <point x="164" y="363" type="line"/>
      <point x="222" y="363" type="line"/>
      <point x="615" y="1391" type="line"/>
      <point x="1021" y="363" type="line"/>
      <point x="1083" y="363" type="line"/>
      <point x="644" y="1456" type="line"/>
    </contour>
  </outline>
</glyph>
<glyph name="underscore" format="1">
  <advance width="850"/>
  <unicode hex="005F"/>
  <outline>
    <contour>
      <point x="0" y="-244" type="line"/>
      <point x="850" y="-244" type="line"/>
      <point x="850" y="-172" type="line"/>
      <point x="0" y="-172" type="line"/>
    </contour>
  </outline>
</glyph>
<glyph name="grave" format="1">
  <advance width="795"/>
  <unicode hex="0060"/>
  <outline>
    <contour>
      <point x="388" y="1210" type="line"/>
      <point x="437" y="1210" type="line"/>
      <point x="222" y="1560" type="line"/>
      <point x="109" y="1560" type="line"/>
    </contour>
    <contour>
      <point x="398" y="1052" type="move" name="_top"/>
    </contour>
  </outline>
</glyph>
<glyph name="a" format="1">
  <advance width="1116"/>
  <unicode hex="0061"/>
  <outline>
    <contour>
      <point x="446" y="-14" type="curve" smooth="yes"/>
      <point x="571" y="-14"/>
      <point x="737" y="9"/>
      <point x="882" y="223" type="curve"/>
      <point x="851" y="216" type="line"/>
      <point x="870" y="1" type="line"/>
      <point x="934" y="1" type="line"/>
      <point x="934" y="734" type="line" smooth="yes"/>
      <point x="934" y="1012"/>
      <point x="778" y="1102"/>
      <point x="541" y="1102" type="curve" smooth="yes"/>
      <point x="421" y="1102"/>
      <point x="258" y="1060"/>
      <point x="183" y="1015" type="curve"/>
      <point x="219" y="946" type="line"/>
      <point x="311" y="1001"/>
      <point x="435" y="1031"/>
      <point x="546" y="1031" type="curve" smooth="yes"/>
      <point x="742" y="1031"/>
      <point x="844" y="933"/>
      <point x="844" y="753" type="curve" smooth="yes"/>
      <point x="844" y="572" type="line"/>
      <point x="874" y="606" type="line"/>
      <point x="647" y="610" type="line" smooth="yes"/>
      <point x="264" y="614"/>
      <point x="118" y="498"/>
      <point x="118" y="276" type="curve" smooth="yes"/>
      <point x="118" y="95"/>
      <point x="251" y="-14"/>
    </contour>
    <contour>
      <point x="450" y="58" type="curve" smooth="yes"/>
      <point x="323" y="58"/>
      <point x="212" y="126"/>
      <point x="212" y="277" type="curve" smooth="yes"/>
      <point x="212" y="452"/>
      <point x="276" y="548"/>
      <point x="655" y="545" type="curve" smooth="yes"/>
      <point x="862" y="543" type="line"/>
      <point x="844" y="556" type="line"/>
      <point x="844" y="234" type="line"/>
      <point x="856" y="280" type="line"/>
      <point x="723" y="92"/>
      <point x="590" y="58"/>
    </contour>
    <contour>
      <point x="899" y="0" type="move" name="ogonek"/>
    </contour>
    <contour>
      <point x="550" y="0" type="move" name="bot"/>
    </contour>
    <contour>
      <point x="540" y="1082" type="move" name="top"/>
    </contour>
  </outline>
</glyph>
<glyph name="f" format="1">
  <advance width="728.400"/>
  <unicode hex="0066"/>
  <outline>
    <contour>
      <point x="382" y="1512"/>
      <point x="297" y="1414"/>
      <point x="297" y="1171" type="curve" smooth="yes"/>
      <point x="297" y="1063" type="line"/>
      <point x="338" y="1084" type="line"/>
      <point x="82" y="1065" type="line"/>
      <point x="77" y="1032" type="line"/>
      <point x="327" y="1032" type="line"/>
      <point x="297" y="1058" type="line"/>
      <point x="297" y="0" type="line"/>
      <point x="390" y="0" type="line"/>
      <point x="390" y="1056" type="line"/>
      <point x="347" y="1032" type="line"/>
      <point x="642" y="1032" type="line"/>
      <point x="642" y="1082" type="line"/>
      <point x="351" y="1082" type="line"/>
      <point x="390" y="1062" type="line"/>
      <point x="390" y="1173" type="line" smooth="yes"/>
      <point x="390" y="1421"/>
      <point x="460" y="1448"/>
      <point x="571" y="1448" type="curve" smooth="yes"/>
      <point x="619" y="1448"/>
      <point x="689" y="1438"/>
      <point x="683" y="1439" type="curve"/>
      <point x="687" y="1498" type="line"/>
      <point x="701" y="1496"/>
      <point x="636" y="1512"/>
      <point x="553" y="1512" type="curve" smooth="yes"/>
    </contour>
    <contour>
      <point x="439" y="1455" type="move" name="top"/>
    </contour>
  </outline>
</glyph>
<glyph name="g" format="1">
  <advance width="1261.600"/>
  <unicode hex="0067"/>
  <outline>
    <contour>
      <point x="575" y="-446" type="curve" smooth="yes"/>
      <point x="979" y="-446"/>
      <point x="1084" y="-241"/>
      <point x="1084" y="79" type="curve" smooth="yes"/>
      <point x="1084" y="1082" type="line"/>
      <point x="998" y="1082" type="line"/>
      <point x="985" y="834" type="line"/>
      <point x="1017" y="832" type="line"/>
      <point x="969" y="977"/>
      <point x="840" y="1102"/>
      <point x="617" y="1102" type="curve" smooth="yes"/>
      <point x="220" y="1102"/>
      <point x="120" y="782"/>
      <point x="120" y="536" type="curve" smooth="yes"/>
      <point x="120" y="310"/>
      <point x="240" y="0"/>
      <point x="601" y="0" type="curve" smooth="yes"/>
      <point x="878" y="0"/>
      <point x="994" y="174"/>
      <point x="1026" y="295" type="curve"/>
      <point x="992" y="291" type="line"/>
      <point x="992" y="71" type="line" smooth="yes"/>
      <point x="992" y="-250"/>
      <point x="881" y="-374"/>
      <point x="560" y="-374" type="curve" smooth="yes"/>
      <point x="460" y="-374"/>
      <point x="342" y="-350"/>
      <point x="296" y="-332" type="curve"/>
      <point x="286" y="-332" type="line"/>
      <point x="286" y="-404" type="line"/>
      <point x="327" y="-418"/>
      <point x="445" y="-446"/>
    </contour>
    <contour>
      <point x="596" y="70" type="curve" smooth="yes"/>
      <point x="309" y="70"/>
      <point x="212" y="353"/>
      <point x="212" y="536" type="curve" smooth="yes"/>
      <point x="212" y="740"/>
      <point x="305" y="1033"/>
      <point x="598" y="1033" type="curve" smooth="yes"/>
      <point x="871" y="1033"/>
      <point x="958" y="854"/>
      <point x="992" y="763" type="curve"/>
      <point x="992" y="321" type="line"/>
      <point x="959" y="250"/>
      <point x="877" y="70"/>
    </contour>
    <contour>
      <point x="630" y="0" type="move" name="bot"/>
    </contour>
    <contour>
      <point x="617" y="1082" type="move" name="top"/>
    </contour>
  </outline>
</glyph>
<glyph name="l" format="1">
  <advance width="585"/>
  <unicode hex="006C"/>
  <outline>
    <contour>
      <point x="433" y="-10" type="curve" smooth="yes"/>
      <point x="495" y="-10"/>
      <point x="544" y="-7"/>
      <point x="569" y="-4" type="curve"/>
      <point x="569" y="60" type="line"/>
      <point x="557" y="58"/>
      <point x="504" y="54"/>
      <point x="450" y="54" type="curve" smooth="yes"/>
      <point x="319" y="54"/>
      <point x="284" y="126"/>
      <point x="284" y="242" type="curve" smooth="yes"/>
      <point x="284" y="1560" type="line"/>
      <point x="192" y="1540" type="line"/>
      <point x="192" y="242" type="line" smooth="yes"/>
      <point x="192" y="27"/>
      <point x="334" y="-10"/>
    </contour>
    <contour>
      <point x="241" y="816" type="move" name="mid"/>
    </contour>
    <contour>
      <point x="554" y="850" type="move" name="mid_2"/>
    </contour>
    <contour>
      <point x="344" y="1455" type="move" name="top"/>
    </contour>
  </outline>
</glyph>
<glyph name="m" format="1">
  <advance width="1777"/>
  <unicode hex="006D"/>
  <outline>
    <contour>
      <point x="189" y="-9.69604e-05" type="line"/>
      <point x="281" y="-9.69604e-05" type="line"/>
      <point x="281" y="672" type="line" smooth="yes"/>
      <point x="281" y="841"/>
      <point x="362" y="1033"/>
      <point x="625" y="1033" type="curve" smooth="yes"/>
      <point x="812" y="1033"/>
      <point x="850" y="907"/>
      <point x="849" y="712" type="curve" smooth="yes"/>
      <point x="849" y="-9.69604e-05" type="line"/>
      <point x="941" y="-9.69604e-05" type="line"/>
      <point x="941" y="661" type="line"/>
      <point x="941" y="672" type="line"/>
      <point x="941" y="841"/>
      <point x="1022" y="1033"/>
      <point x="1285" y="1033" type="curve" smooth="yes"/>
      <point x="1472" y="1033"/>
      <point x="1510" y="907"/>
      <point x="1509" y="712" type="curve" smooth="yes"/>
      <point x="1509" y="-9.6722e-05" type="line"/>
      <point x="1601" y="-9.6722e-05" type="line"/>
      <point x="1601" y="661" type="line" smooth="yes"/>
      <point x="1601" y="967"/>
      <point x="1517" y="1102"/>
      <point x="1286" y="1102" type="curve" smooth="yes"/>
      <point x="1112" y="1102"/>
      <point x="972" y="1025"/>
      <point x="917" y="850" type="curve"/>
      <point x="923" y="850" type="line"/>
      <point x="887" y="1008"/>
      <point x="795" y="1102"/>
      <point x="626" y="1102" type="curve" smooth="yes"/>
      <point x="463" y="1102"/>
      <point x="344" y="1030"/>
      <point x="268" y="886" type="curve"/>
      <point x="277" y="882" type="line"/>
      <point x="265" y="1082" type="line"/>
      <point x="189" y="1082" type="line"/>
    </contour>
    <contour>
      <point x="889" y="0" type="move" name="bot"/>
    </contour>
    <contour>
      <point x="933" y="1082" type="move" name="top"/>
    </contour>
  </outline>
</glyph>
<glyph name="n" format="1">
  <advance width="1161"/>
  <unicode hex="006E"/>
  <outline>
    <contour>
      <point x="188" y="0" type="line"/>
      <point x="280" y="0" type="line"/>
      <point x="280" y="672" type="line" smooth="yes"/>
      <point x="280" y="841"/>
      <point x="346" y="1033"/>
      <point x="639" y="1033" type="curve" smooth="yes"/>
      <point x="836" y="1033"/>
      <point x="894" y="907"/>
      <point x="893" y="712" type="curve"/>
      <point x="893" y="0" type="line"/>
      <point x="985" y="0" type="line"/>
      <point x="985" y="661" type="line" smooth="yes"/>
      <point x="985" y="967"/>
      <point x="881" y="1102"/>
      <point x="640" y="1102" type="curve" smooth="yes"/>
      <point x="426" y="1102"/>
      <point x="313" y="1003"/>
      <point x="262" y="865" type="curve"/>
      <point x="280" y="865" type="line"/>
      <point x="264" y="1082" type="line"/>
      <point x="188" y="1082" type="line"/>
    </contour>
    <contour>
      <point x="583" y="0" type="move" name="bot"/>
    </contour>
    <contour>
      <point x="639" y="1082" type="move" name="top"/>
    </contour>
  </outline>
</glyph>
<glyph name="q" format="1">
  <advance width="1234"/>
  <unicode hex="0071"/>
  <outline>
    <contour>
      <point x="954" y="-491" type="line"/>
      <point x="1046" y="-487" type="line"/>
      <point x="1046" y="1082" type="line"/>
      <point x="969" y="1082" type="line"/>
      <point x="958" y="812" type="line"/>
      <point x="979" y="812" type="line"/>
      <point x="951" y="948"/>
      <point x="846" y="1102"/>
      <point x="605" y="1102" type="curve" smooth="yes"/>
      <point x="297" y="1102"/>
      <point x="120" y="874"/>
      <point x="120" y="542" type="curve" smooth="yes"/>
      <point x="120" y="213"/>
      <point x="309" y="-20"/>
      <point x="594" y="-20" type="curve" smooth="yes"/>
      <point x="837" y="-20"/>
      <point x="948" y="134"/>
      <point x="986" y="229" type="curve"/>
      <point x="961" y="239" type="line"/>
      <point x="954" y="-135" type="line"/>
    </contour>
    <contour>
      <point x="594" y="49" type="curve" smooth="yes"/>
      <point x="355" y="49"/>
      <point x="214" y="238"/>
      <point x="214" y="542" type="curve" smooth="yes"/>
      <point x="214" y="846"/>
      <point x="362" y="1033"/>
      <point x="598" y="1033" type="curve" smooth="yes"/>
      <point x="759" y="1033"/>
      <point x="888" y="950"/>
      <point x="954" y="778" type="curve"/>
      <point x="954" y="279" type="line"/>
      <point x="900" y="138"/>
      <point x="768" y="49"/>
    </contour>
  </outline>
</glyph>
<glyph name="r" format="1">
  <advance width="773.8"/>
  <unicode hex="0072"/>
  <outline>
    <contour>
      <point x="189" y="0" type="line"/>
      <point x="281" y="0" type="line"/>
      <point x="281" y="643" type="line" smooth="yes"/>
      <point x="281" y="842"/>
      <point x="433" y="1028"/>
      <point x="621" y="1028" type="curve" smooth="yes"/>
      <point x="640" y="1028"/>
      <point x="667" y="1025"/>
      <point x="685" y="1020" type="curve"/>
      <point x="694" y="1091" type="line"/>
      <point x="674" y="1094"/>
      <point x="643" y="1096"/>
      <point x="609" y="1096" type="curve" smooth="yes"/>
      <point x="468" y="1096"/>
      <point x="312" y="1017"/>
      <point x="244" y="760" type="curve"/>
      <point x="265" y="757" type="line"/>
      <point x="253" y="1082" type="line"/>
      <point x="189" y="1082" type="line"/>
    </contour>
    <contour>
      <point x="248" y="0" type="move" name="bot"/>
    </contour>
    <contour>
      <point x="447" y="1082" type="move" name="top"/>
    </contour>
  </outline>
</glyph>
<glyph name="x" format="1">
  <advance width="1010"/>
  <unicode hex="0078"/>
  <outline>
    <contour>
      <point x="867" y="1082" type="line"/>
      <point x="504" y="573" type="line"/>
      <point x="481" y="572" type="line"/>
      <point x="45" y="0" type="line"/>
      <point x="147" y="0" type="line"/>
      <point x="528" y="507" type="line"/>
      <point x="558" y="522" type="line"/>
      <point x="969" y="1082" type="line"/>
    </contour>
    <contour>
      <point x="79" y="1082" type="line"/>
      <point x="866" y="0" type="line"/>
      <point x="964" y="0" type="line"/>
      <point x="180" y="1082" type="line"/>
    </contour>
  </outline>
</glyph>
<glyph name="y" format="1">
  <advance width="1064.600"/>
  <unicode hex="0079"/>
  <outline>
    <contour>
      <point x="1008" y="1082" type="line"/>
      <point x="920" y="1082" type="line"/>
      <point x="544" y="90" type="line"/>
      <point x="541" y="75" type="line"/>
      <point x="365" y="-369" type="line"/>
      <point x="435" y="-401" type="line"/>
    </contour>
    <contour>
      <point x="590" y="115" type="line"/>
      <point x="168" y="1082" type="line"/>
      <point x="76" y="1082" type="line"/>
      <point x="555" y="-4" type="line"/>
    </contour>
    <contour>
      <point x="532" y="0" type="move" name="bot"/>
    </contour>
    <contour>
      <point x="562" y="1082" type="move" name="top"/>
    </contour>
  </outline>
</glyph>
<glyph name="z" format="1">
  <advance width="886.600"/>
  <unicode hex="007A"/>
  <outline>
    <contour>
      <point x="143" y="1082" type="line"/>
      <point x="143" y="1021" type="line"/>
      <point x="750" y="1021" type="line"/>
      <point x="729" y="1067" type="line"/>
      <point x="122" y="65" type="line"/>
      <point x="122" y="0" type="line"/>
      <point x="780" y="0" type="line"/>
      <point x="780" y="59" type="line"/>
      <point x="138" y="59" type="line"/>
      <point x="163" y="9" type="line"/>
      <point x="776" y="1019" type="line"/>
      <point x="776" y="1082" type="line"/>
    </contour>
    <contour>
      <point x="443" y="0" type="move" name="bot"/>
    </contour>
    <contour>
      <point x="473" y="1082" type="move" name="top"/>
    </contour>
  </outline>
</glyph>
<glyph name="braceleft" format="1">
  <advance width="826.6"/>
  <unicode hex="007B"/>
  <outline>
    <contour>
      <point x="618" y="-286" type="curve"/>
      <point x="618" y="-231" type="line"/>
      <point x="466" y="-229"/>
      <point x="414" y="-171"/>
      <point x="414" y="28" type="curve" smooth="yes"/>
      <point x="414" y="316" type="line" smooth="yes"/>
      <point x="414" y="491"/>
      <point x="392" y="589"/>
      <point x="237" y="609" type="curve"/>
      <point x="392" y="629"/>
      <point x="414" y="727"/>
      <point x="414" y="902" type="curve" smooth="yes"/>
      <point x="414" y="1190" type="line" smooth="yes"/>
      <point x="414" y="1389"/>
      <point x="474" y="1447"/>
      <point x="626" y="1449" type="curve"/>
      <point x="626" y="1504" type="line"/>
      <point x="407" y="1504"/>
      <point x="337" y="1406"/>
      <point x="337" y="1192" type="curve" smooth="yes"/>
      <point x="337" y="948" type="line" smooth="yes"/>
      <point x="337" y="757"/>
      <point x="329" y="635"/>
      <point x="122" y="631" type="curve"/>
      <point x="122" y="587" type="line"/>
      <point x="329" y="583"/>
      <point x="337" y="461"/>
      <point x="337" y="270" type="curve" smooth="yes"/>
      <point x="337" y="26" type="line" smooth="yes"/>
      <point x="337" y="-188"/>
      <point x="399" y="-286"/>
    </contour>
  </outline>
</glyph>
<glyph name="copyright" format="1">
  <advance width="1973"/>
  <unicode hex="00A9"/>
  <outline>
    <contour>
      <point x="1028" y="225" type="curve" smooth="yes"/>
      <point x="1120" y="225"/>
      <point x="1219" y="253"/>
      <point x="1316" y="315" type="curve"/>
      <point x="1293" y="382" type="line"/>
      <point x="1191" y="320"/>
      <point x="1113" y="302"/>
      <point x="1024" y="302" type="curve" smooth="yes"/>
      <point x="799" y="302"/>
      <point x="604" y="476"/>
      <point x="604" y="773" type="curve" smooth="yes"/>
      <point x="604" y="1031"/>
      <point x="800" y="1219"/>
      <point x="1014" y="1219" type="curve" smooth="yes"/>
      <point x="1091" y="1219"/>
      <point x="1196" y="1190"/>
      <point x="1276" y="1121" type="curve"/>
      <point x="1312" y="1195" type="line"/>
      <point x="1212" y="1265"/>
      <point x="1108" y="1297"/>
      <point x="1013" y="1297" type="curve" smooth="yes"/>
      <point x="747" y="1297"/>
      <point x="502" y="1073"/>
      <point x="502" y="763" type="curve" smooth="yes"/>
      <point x="502" y="448"/>
      <point x="753" y="225"/>
    </contour>
    <contour>
      <point x="985" y="13" type="curve"/>
      <point x="645" y="13"/>
      <point x="260" y="232"/>
      <point x="260" y="763" type="curve"/>
      <point x="260" y="1294"/>
      <point x="646" y="1516"/>
      <point x="985" y="1516" type="curve"/>
      <point x="1323" y="1516"/>
      <point x="1713" y="1293"/>
      <point x="1713" y="763" type="curve"/>
      <point x="1713" y="233"/>
      <point x="1323" y="13"/>
    </contour>
    <contour>
      <point x="984" y="-48" type="curve" smooth="yes"/>
      <point x="1368" y="-48"/>
      <point x="1797" y="192"/>
      <point x="1797" y="763" type="curve" smooth="yes"/>
      <point x="1797" y="1334"/>
      <point x="1369" y="1577"/>
      <point x="985" y="1577" type="curve" smooth="yes"/>
      <point x="600" y="1577"/>
      <point x="176" y="1333"/>
      <point x="176" y="763" type="curve" smooth="yes"/>
      <point x="176" y="192"/>
      <point x="600" y="-48"/>
    </contour>
  </outline>
</glyph>
<glyph name="plusminus" format="1">
  <advance width="1171.800"/>
  <unicode hex="00B1"/>
  <outline>
    <contour>
      <point x="536" y="1042" type="line"/>
      <point x="536" y="638" type="line"/>
      <point x="150" y="638" type="line"/>
      <point x="150" y="588" type="line"/>
      <point x="536" y="588" type="line"/>
      <point x="536" y="174" type="line"/>
      <point x="605" y="174" type="line"/>
      <point x="605" y="588" type="line"/>
      <point x="980" y="588" type="line"/>
      <point x="980" y="638" type="line"/>
      <point x="605" y="638" type="line"/>
      <point x="605" y="1042" type="line"/>
    </contour>
    <contour>
      <point x="113" y="65" type="line"/>
      <point x="113" y="0" type="line"/>
      <point x="1058" y="0" type="line"/>
      <point x="1058" y="65" type="line"/>
    </contour>
  </outline>
</glyph>
<glyph name="uni00B2" format="1">
  <advance width="730"/>
  <unicode hex="00B2"/>
  <outline>
    <contour>
      <point x="147" y="696" type="line"/>
      <point x="622" y="696" type="line"/>
      <point x="622" y="754" type="line"/>
      <point x="240" y="754" type="line"/>
      <point x="328" y="848"/>
      <point x="399" y="918"/>
      <point x="456" y="977" type="curve" smooth="yes"/>
      <point x="571" y="1094"/>
      <point x="624" y="1163"/>
      <point x="624" y="1281" type="curve" smooth="yes"/>
      <point x="624" y="1440"/>
      <point x="509" y="1521"/>
      <point x="364" y="1521" type="curve" smooth="yes"/>
      <point x="231" y="1521"/>
      <point x="135" y="1471"/>
      <point x="65" y="1385" type="curve"/>
      <point x="111" y="1341" type="line"/>
      <point x="176" y="1416"/>
      <point x="249" y="1461"/>
      <point x="371" y="1461" type="curve" smooth="yes"/>
      <point x="488" y="1461"/>
      <point x="553" y="1386"/>
      <point x="553" y="1280" type="curve" smooth="yes"/>
      <point x="553" y="1201"/>
      <point x="519" y="1137"/>
      <point x="407" y="1016" type="curve" smooth="yes"/>
      <point x="346" y="950"/>
      <point x="262" y="867"/>
      <point x="147" y="756" type="curve"/>
    </contour>
  </outline>
</glyph>
<glyph name="acute" format="1">
  <advance width="675.400"/>
  <unicode hex="00B4"/>
  <outline>
    <contour>
      <point x="198" y="1210" type="line"/>
      <point x="247" y="1210" type="line"/>
      <point x="510" y="1560" type="line"/>
      <point x="413" y="1560" type="line"/>
    </contour>
    <contour>
      <point x="224" y="1082" type="move" name="_top"/>
    </contour>
  </outline>
</glyph>
<glyph name="uni00B5" format="1">
  <advance width="1166"/>
  <unicode hex="00B5"/>
  <outline>
    <contour>
      <point x="177" y="610" type="line"/>
      <point x="177" y="-359" type="line"/>
      <point x="270" y="-359" type="line"/>
      <point x="270" y="610" type="line"/>
    </contour>
    <component base="u"/>
  </outline>
</glyph>
<glyph name="cedilla" format="1">
  <advance width="619.600"/>
  <unicode hex="00B8"/>
  <outline>
    <contour>
      <point x="269" y="-387" type="curve" smooth="yes"/>
      <point x="414" y="-387"/>
      <point x="517" y="-312"/>
      <point x="517" y="-199" type="curve" smooth="yes"/>
      <point x="517" y="-56"/>
      <point x="370" y="-16"/>
      <point x="253" y="-60" type="curve"/>
      <point x="254" y="-94" type="line"/>
      <point x="434" y="-57"/>
      <point x="460" y="-149"/>
      <point x="457" y="-205" type="curve" smooth="yes"/>
      <point x="450" y="-350"/>
      <point x="248" y="-369"/>
      <point x="142" y="-305" type="curve"/>
      <point x="122" y="-356" type="line"/>
      <point x="165" y="-376"/>
      <point x="214" y="-387"/>
    </contour>
    <contour>
      <point x="300" y="0" type="move" name="_bot"/>
    </contour>
  </outline>
</glyph>
<glyph name="guillemotright" format="1">
  <advance width="963.8"/>
  <unicode hex="00BB"/>
  <outline>
    <contour>
      <point x="232" y="163" type="line"/>
      <point x="504" y="537" type="line"/>
      <point x="235" y="911" type="line"/>
      <point x="183" y="899" type="line"/>
      <point x="440" y="534" type="line"/>
      <point x="174" y="177" type="line"/>
    </contour>
    <contour>
      <point x="544" y="163" type="line"/>
      <point x="816" y="537" type="line"/>
      <point x="547" y="911" type="line"/>
      <point x="495" y="899" type="line"/>
      <point x="752" y="534" type="line"/>
      <point x="487" y="177" type="line"/>
    </contour>
  </outline>
</glyph>
<glyph name="onequarter" format="1">
  <advance width="1628.2"/>
  <unicode hex="00BC"/>
  <outline>
    <contour>
      <point x="113" y="684" type="line"/>
      <point x="501" y="684" type="line"/>
      <point x="501" y="740" type="line"/>
      <point x="354" y="740" type="line"/>
      <point x="354" y="1512" type="line"/>
      <point x="292" y="1512" type="line"/>
      <point x="245" y="1465"/>
      <point x="167" y="1435"/>
      <point x="106" y="1414" type="curve"/>
      <point x="106" y="1354" type="line"/>
      <point x="165" y="1375"/>
      <point x="243" y="1406"/>
      <point x="280" y="1432" type="curve"/>
      <point x="280" y="740" type="line"/>
      <point x="113" y="740" type="line"/>
    </contour>
    <contour>
      <point x="1370" y="-1" type="line"/>
      <point x="1442" y="-1" type="line"/>
      <point x="1442" y="219" type="line"/>
      <point x="1569" y="219" type="line"/>
      <point x="1562" y="274" type="line"/>
      <point x="1444" y="274" type="line"/>
      <point x="1444" y="827" type="line"/>
      <point x="1360" y="827" type="line"/>
      <point x="974" y="264" type="line"/>
      <point x="974" y="219" type="line"/>
      <point x="1370" y="219" type="line"/>
    </contour>
    <contour>
      <point x="392" y="0" type="line"/>
      <point x="468" y="0" type="line"/>
      <point x="1339" y="1526" type="line"/>
      <point x="1262" y="1526" type="line"/>
    </contour>
    <contour>
      <point x="1056" y="274" type="line"/>
      <point x="1371" y="739" type="line"/>
      <point x="1371" y="274" type="line"/>
    </contour>
  </outline>
</glyph>
<glyph name="onehalf" format="1">
  <advance width="1683"/>
  <unicode hex="00BD"/>
  <outline>
    <contour>
      <point x="1040" y="0" type="line"/>
      <point x="1550" y="0" type="line"/>
      <point x="1546" y="68" type="line"/>
      <point x="1141" y="68" type="line"/>
      <point x="1235" y="161"/>
      <point x="1315" y="233"/>
      <point x="1378" y="294" type="curve" smooth="yes"/>
      <point x="1497" y="410"/>
      <point x="1560" y="488"/>
      <point x="1560" y="597" type="curve" smooth="yes"/>
      <point x="1560" y="746"/>
      <point x="1452" y="838"/>
      <point x="1301" y="838" type="curve" smooth="yes"/>
      <point x="1168" y="838"/>
      <point x="1063" y="772"/>
      <point x="1006" y="659" type="curve"/>
      <point x="1066" y="623" type="line"/>
      <point x="1127" y="724"/>
      <point x="1202" y="767"/>
      <point x="1301" y="767" type="curve" smooth="yes"/>
      <point x="1413" y="767"/>
      <point x="1480" y="698"/>
      <point x="1480" y="597" type="curve" smooth="yes"/>
      <point x="1480" y="510"/>
      <point x="1438" y="449"/>
      <point x="1329" y="340" type="curve" smooth="yes"/>
      <point x="1261" y="272"/>
      <point x="1167" y="185"/>
      <point x="1040" y="61" type="curve"/>
    </contour>
    <contour>
      <point x="113" y="684" type="line"/>
      <point x="501" y="684" type="line"/>
      <point x="501" y="740" type="line"/>
      <point x="354" y="740" type="line"/>
      <point x="354" y="1512" type="line"/>
      <point x="292" y="1512" type="line"/>
      <point x="245" y="1465"/>
      <point x="167" y="1435"/>
      <point x="106" y="1414" type="curve"/>
      <point x="106" y="1354" type="line"/>
      <point x="165" y="1375"/>
      <point x="243" y="1406"/>
      <point x="280" y="1432" type="curve"/>
      <point x="280" y="740" type="line"/>
      <point x="113" y="740" type="line"/>
    </contour>
    <contour>
      <point x="376" y="0" type="line"/>
      <point x="452" y="0" type="line"/>
      <point x="1323" y="1526" type="line"/>
      <point x="1246" y="1526" type="line"/>
    </contour>
  </outline>
</glyph>
<glyph name="threequarters" format="1">
  <advance width="1711.200"/>
  <unicode hex="00BE"/>
  <outline>
    <contour>
      <point x="352" y="665" type="curve" smooth="yes"/>
      <point x="488" y="665"/>
      <point x="615" y="732"/>
      <point x="615" y="890" type="curve" smooth="yes"/>
      <point x="615" y="1000"/>
      <point x="544" y="1080"/>
      <point x="441" y="1103" type="curve"/>
      <point x="535" y="1120"/>
      <point x="601" y="1198"/>
      <point x="601" y="1298" type="curve" smooth="yes"/>
      <point x="601" y="1447"/>
      <point x="492" y="1513"/>
      <point x="367" y="1513" type="curve" smooth="yes"/>
      <point x="284" y="1513"/>
      <point x="193" y="1484"/>
      <point x="123" y="1430" type="curve"/>
      <point x="161" y="1376" type="line"/>
      <point x="221" y="1421"/>
      <point x="297" y="1447"/>
      <point x="364" y="1447" type="curve" smooth="yes"/>
      <point x="454" y="1447"/>
      <point x="527" y="1401"/>
      <point x="527" y="1296" type="curve" smooth="yes"/>
      <point x="527" y="1197"/>
      <point x="463" y="1136"/>
      <point x="329" y="1136" type="curve" smooth="yes"/>
      <point x="252" y="1136" type="line"/>
      <point x="252" y="1070" type="line"/>
      <point x="329" y="1070" type="line" smooth="yes"/>
      <point x="467" y="1070"/>
      <point x="534" y="1001"/>
      <point x="534" y="890" type="curve" smooth="yes"/>
      <point x="534" y="775"/>
      <point x="448" y="730"/>
      <point x="350" y="730" type="curve" smooth="yes"/>
      <point x="282" y="730"/>
      <point x="209" y="751"/>
      <point x="155" y="786" type="curve"/>
      <point x="127" y="731" type="line"/>
      <point x="188" y="688"/>
      <point x="271" y="665"/>
    </contour>
    <contour>
      <point x="1395" y="-1" type="line"/>
      <point x="1467" y="-1" type="line"/>
      <point x="1467" y="219" type="line"/>
      <point x="1594" y="219" type="line"/>
      <point x="1587" y="274" type="line"/>
      <point x="1469" y="274" type="line"/>
      <point x="1469" y="827" type="line"/>
      <point x="1385" y="827" type="line"/>
      <point x="999" y="264" type="line"/>
      <point x="999" y="219" type="line"/>
      <point x="1395" y="219" type="line"/>
    </contour>
    <contour>
      <point x="417" y="0" type="line"/>
      <point x="493" y="0" type="line"/>
      <point x="1364" y="1526" type="line"/>
      <point x="1287" y="1526" type="line"/>
    </contour>
    <contour>
      <point x="1081" y="274" type="line"/>
      <point x="1396" y="739" type="line"/>
      <point x="1396" y="274" type="line"/>
    </contour>
  </outline>
</glyph>
<glyph name="AE" format="1">
  <advance width="1970"/>
  <unicode hex="00C6"/>
  <outline>
    <contour>
      <point x="1064" y="1455" type="line"/>
      <point x="68" y="0" type="line"/>
      <point x="160" y="0" type="line"/>
      <point x="511" y="515" type="line"/>
      <point x="1084" y="515" type="line"/>
      <point x="1084" y="0" type="line"/>
      <point x="1911" y="0" type="line"/>
      <point x="1918" y="67" type="line"/>
      <point x="1161" y="67" type="line"/>
      <point x="1161" y="711" type="line"/>
      <point x="1832" y="711" type="line"/>
      <point x="1832" y="779" type="line"/>
      <point x="1161" y="779" type="line"/>
      <point x="1161" y="1386" type="line"/>
      <point x="1918" y="1386" type="line"/>
      <point x="1920" y="1455" type="line"/>
    </contour>
    <contour>
      <point x="1084" y="582" type="line"/>
      <point x="556" y="582" type="line"/>
      <point x="1084" y="1367" type="line"/>
    </contour>
    <contour>
      <point x="1499" y="1455" type="move" name="top"/>
    </contour>
  </outline>
</glyph>
<glyph name="Thorn" format="1">
  <advance width="1196"/>
  <unicode hex="00DE"/>
  <outline>
    <contour>
      <point x="223" y="0" type="line"/>
      <point x="309" y="0" type="line"/>
      <point x="309" y="462" type="line"/>
      <point x="254" y="429" type="line"/>
      <point x="673" y="429" type="line" smooth="yes"/>
      <point x="961" y="429"/>
      <point x="1094" y="554"/>
      <point x="1094" y="808" type="curve" smooth="yes"/>
      <point x="1094" y="1045"/>
      <point x="920" y="1150"/>
      <point x="679" y="1150" type="curve" smooth="yes"/>
      <point x="269" y="1150" type="line"/>
      <point x="308" y="1123" type="line"/>
      <point x="308" y="1455" type="line"/>
      <point x="223" y="1455" type="line"/>
    </contour>
    <contour>
      <point x="308" y="465" type="line"/>
      <point x="308" y="1103" type="line"/>
      <point x="269" y="1081" type="line"/>
      <point x="676" y="1081" type="line" smooth="yes"/>
      <point x="864" y="1081"/>
      <point x="1008" y="1019"/>
      <point x="1008" y="811" type="curve" smooth="yes"/>
      <point x="1008" y="565"/>
      <point x="900" y="496"/>
      <point x="687" y="496" type="curve" smooth="yes"/>
      <point x="252" y="496" type="line"/>
    </contour>
  </outline>
</glyph>
<glyph name="germandbls" format="1">
  <advance width="1183.600"/>
  <unicode hex="00DF"/>
  <outline>
    <contour>
      <point x="794" y="-18" type="curve" smooth="yes"/>
      <point x="982" y="-18"/>
      <point x="1088" y="102"/>
      <point x="1088" y="272" type="curve" smooth="yes"/>
      <point x="1088" y="555"/>
      <point x="688" y="616"/>
      <point x="688" y="745" type="curve" smooth="yes"/>
      <point x="688" y="851"/>
      <point x="923" y="1010"/>
      <point x="923" y="1197" type="curve" smooth="yes"/>
      <point x="923" y="1353"/>
      <point x="822" y="1494"/>
      <point x="600" y="1494" type="curve" smooth="yes"/>
      <point x="298" y="1494"/>
      <point x="204" y="1316"/>
      <point x="204" y="1025" type="curve" smooth="yes"/>
      <point x="204" y="0" type="line"/>
      <point x="298" y="0" type="line"/>
      <point x="298" y="1037" type="line" smooth="yes"/>
      <point x="298" y="1330"/>
      <point x="390" y="1422"/>
      <point x="597" y="1422" type="curve" smooth="yes"/>
      <point x="758" y="1422"/>
      <point x="824" y="1325"/>
      <point x="823" y="1200" type="curve" smooth="yes"/>
      <point x="822" y="970"/>
      <point x="611" y="903"/>
      <point x="611" y="740" type="curve" smooth="yes"/>
      <point x="611" y="540"/>
      <point x="1003" y="493"/>
      <point x="1003" y="260" type="curve" smooth="yes"/>
      <point x="1003" y="181"/>
      <point x="961" y="61"/>
      <point x="800" y="61" type="curve" smooth="yes"/>
      <point x="665" y="61"/>
      <point x="557" y="106"/>
      <point x="491" y="141" type="curve"/>
      <point x="458" y="63" type="line"/>
      <point x="508" y="29"/>
      <point x="645" y="-18"/>
    </contour>
  </outline>
</glyph>
<glyph name="ae" format="1">
  <advance width="1819.400"/>
  <unicode hex="00E6"/>
  <outline>
    <contour>
      <point x="1312" y="-19" type="curve" smooth="yes"/>
      <point x="1462" y="-19"/>
      <point x="1564" y="18"/>
      <point x="1668" y="71" type="curve"/>
      <point x="1638" y="132" type="line"/>
      <point x="1501" y="67"/>
      <point x="1429" y="55"/>
      <point x="1328" y="55" type="curve"/>
      <point x="1107" y="54"/>
      <point x="937" y="196"/>
      <point x="927" y="539" type="curve"/>
      <point x="1502" y="539"/>
      <point x="1670" y="577"/>
      <point x="1670" y="819" type="curve" smooth="yes"/>
      <point x="1670" y="962"/>
      <point x="1539" y="1101"/>
      <point x="1303" y="1101" type="curve" smooth="yes"/>
      <point x="1132" y="1101"/>
      <point x="939" y="999"/>
      <point x="911" y="796" type="curve"/>
      <point x="907" y="1020"/>
      <point x="748" y="1102"/>
      <point x="543" y="1102" type="curve" smooth="yes"/>
      <point x="431" y="1102"/>
      <point x="282" y="1064"/>
      <point x="198" y="1018" type="curve"/>
      <point x="231" y="948" type="line"/>
      <point x="333" y="1005"/>
      <point x="469" y="1031"/>
      <point x="576" y="1031" type="curve"/>
      <point x="769" y="1032"/>
      <point x="842" y="927"/>
      <point x="842" y="755" type="curve" smooth="yes"/>
      <point x="842" y="606" type="line"/>
      <point x="634" y="606" type="line" smooth="yes"/>
      <point x="273" y="606"/>
      <point x="135" y="497"/>
      <point x="135" y="293" type="curve" smooth="yes"/>
      <point x="135" y="60"/>
      <point x="290" y="-13"/>
      <point x="457" y="-13" type="curve" smooth="yes"/>
      <point x="627" y="-13"/>
      <point x="839" y="75"/>
      <point x="926" y="189" type="curve"/>
      <point x="1005" y="56"/>
      <point x="1142" y="-19"/>
    </contour>
    <contour>
      <point x="469" y="70" type="curve" smooth="yes"/>
      <point x="332" y="70"/>
      <point x="230" y="140"/>
      <point x="230" y="311" type="curve" smooth="yes"/>
      <point x="230" y="467"/>
      <point x="315" y="542"/>
      <point x="665" y="542" type="curve" smooth="yes"/>
      <point x="841" y="542" type="line"/>
      <point x="840" y="457"/>
      <point x="853" y="347"/>
      <point x="889" y="261" type="curve"/>
      <point x="797" y="149"/>
      <point x="612" y="70"/>
    </contour>
    <contour>
      <point x="932" y="600" type="curve"/>
      <point x="954" y="822"/>
      <point x="1074" y="1025"/>
      <point x="1304" y="1025" type="curve" smooth="yes"/>
      <point x="1499" y="1025"/>
      <point x="1594" y="908"/>
      <point x="1594" y="804" type="curve" smooth="yes"/>
      <point x="1594" y="636"/>
      <point x="1382" y="600"/>
    </contour>
    <contour>
      <point x="930" y="1082" type="move" name="top"/>
    </contour>
  </outline>
</glyph>
<glyph name="divide" format="1">
  <advance width="1021.400"/>
  <unicode hex="00F7"/>
  <outline>
    <contour>
      <point x="53" y="608" type="line"/>
      <point x="53" y="515" type="line"/>
      <point x="941" y="515" type="line"/>
      <point x="941" y="608" type="line"/>
    </contour>
    <contour>
      <point x="433" y="190" type="line"/>
      <point x="433" y="41" type="line"/>
      <point x="564" y="41" type="line"/>
      <point x="564" y="190" type="line"/>
    </contour>
    <contour>
      <point x="433" y="1046" type="line"/>
      <point x="433" y="896" type="line"/>
      <point x="563" y="896" type="line"/>
      <point x="563" y="1046" type="line"/>
    </contour>
  </outline>
</glyph>
<glyph name="Hbar" format="1">
  <advance width="1487"/>
  <unicode hex="0126"/>
  <outline>
    <contour>
      <point x="108" y="1139" type="line"/>
      <point x="108" y="1082" type="line"/>
      <point x="1375" y="1082" type="line"/>
      <point x="1375" y="1139" type="line"/>
    </contour>
    <component base="H"/>
  </outline>
</glyph>
<glyph name="dotlessi" format="1">
  <advance width="463"/>
  <unicode hex="0131"/>
  <outline>
    <contour>
      <point x="189" y="1082" type="line"/>
      <point x="189" y="0" type="line"/>
      <point x="281" y="0" type="line"/>
      <point x="281" y="1082" type="line"/>
    </contour>
    <contour>
      <point x="238" y="1082" type="move" name="top"/>
    </contour>
    <contour>
      <point x="238" y="0" type="move" name="ogonek"/>
    </contour>
  </outline>
</glyph>
<glyph name="OE" format="1">
  <advance width="2768"/>
  <unicode hex="0152"/>
  <outline>
    <contour>
      <point x="147" y="714" type="curve" smooth="yes"/>
      <point x="147" y="283"/>
      <point x="355" y="-19"/>
      <point x="827" y="-19" type="curve" smooth="yes"/>
      <point x="1121" y="-19"/>
      <point x="1313" y="107"/>
      <point x="1414" y="306" type="curve"/>
      <point x="1414" y="0" type="line"/>
      <point x="2253" y="0" type="line"/>
      <point x="2260" y="67" type="line"/>
      <point x="1500" y="67" type="line"/>
      <point x="1500" y="711" type="line"/>
      <point x="2174" y="711" type="line"/>
      <point x="2174" y="779" type="line"/>
      <point x="1500" y="779" type="line"/>
      <point x="1500" y="1386" type="line"/>
      <point x="2260" y="1386" type="line"/>
      <point x="2262" y="1455" type="line"/>
      <point x="1414" y="1455" type="line"/>
      <point x="1414" y="1128" type="line"/>
      <point x="1310" y="1342"/>
      <point x="1113" y="1474"/>
      <point x="828" y="1474" type="curve" smooth="yes"/>
      <point x="370" y="1474"/>
      <point x="147" y="1162"/>
    </contour>
    <contour>
      <point x="1414" y="714" type="curve" smooth="yes"/>
      <point x="1414" y="327"/>
      <point x="1253" y="48"/>
      <point x="824" y="48" type="curve" smooth="yes"/>
      <point x="396" y="48"/>
      <point x="233" y="327"/>
      <point x="233" y="714" type="curve" smooth="yes"/>
      <point x="233" y="1125"/>
      <point x="414" y="1407"/>
      <point x="827" y="1407" type="curve" smooth="yes"/>
      <point x="1241" y="1407"/>
      <point x="1414" y="1121"/>
    </contour>
  </outline>
</glyph>
<glyph name="oe" format="1">
  <advance width="1994"/>
  <unicode hex="0153"/>
  <outline>
    <contour>
      <point x="1807" y="142" type="line"/>
      <point x="1674" y="77"/>
      <point x="1606" y="54"/>
      <point x="1479" y="54" type="curve" smooth="yes"/>
      <point x="1278" y="54"/>
      <point x="1084" y="181"/>
      <point x="1084" y="527" type="curve"/>
      <point x="1863" y="527" type="line"/>
      <point x="1863" y="527"/>
      <point x="1868" y="555"/>
      <point x="1868" y="589" type="curve" smooth="yes"/>
      <point x="1868" y="885"/>
      <point x="1728" y="1070"/>
      <point x="1478" y="1070" type="curve" smooth="yes"/>
      <point x="1295" y="1071"/>
      <point x="1104" y="950"/>
      <point x="1044" y="714" type="curve"/>
      <point x="998" y="938"/>
      <point x="830" y="1070"/>
      <point x="605" y="1070" type="curve" smooth="yes"/>
      <point x="303" y="1070"/>
      <point x="125" y="831"/>
      <point x="125" y="521" type="curve" smooth="yes"/>
      <point x="125" y="217"/>
      <point x="301" y="-18"/>
      <point x="605" y="-18" type="curve" smooth="yes"/>
      <point x="804" y="-18"/>
      <point x="972" y="103"/>
      <point x="1037" y="321" type="curve"/>
      <point x="1098" y="90"/>
      <point x="1271" y="-18"/>
      <point x="1478" y="-18" type="curve" smooth="yes"/>
      <point x="1660" y="-18"/>
      <point x="1744" y="31"/>
      <point x="1845" y="85" type="curve"/>
      <point x="1819" y="142" type="line"/>
    </contour>
    <contour>
      <point x="605" y="50" type="curve" smooth="yes"/>
      <point x="340" y="50"/>
      <point x="215" y="271"/>
      <point x="215" y="519" type="curve" smooth="yes"/>
      <point x="215" y="779"/>
      <point x="339" y="1002"/>
      <point x="605" y="1002" type="curve" smooth="yes"/>
      <point x="878" y="1002"/>
      <point x="993" y="778"/>
      <point x="993" y="518" type="curve" smooth="yes"/>
      <point x="993" y="272"/>
      <point x="881" y="50"/>
    </contour>
    <contour>
      <point x="1088" y="588" type="line"/>
      <point x="1112" y="823"/>
      <point x="1253" y="999"/>
      <point x="1486" y="999" type="curve" smooth="yes"/>
      <point x="1700" y="999"/>
      <point x="1789" y="854"/>
      <point x="1796" y="588" type="curve"/>
    </contour>
  </outline>
</glyph>
<glyph name="apostrophemod" format="1">
  <advance width="640"/>
  <unicode hex="02BC"/>
  <outline>
    <contour>
      <point x="176" y="1210" type="line"/>
      <point x="223" y="1210" type="line"/>
      <point x="348" y="1617" type="line"/>
      <point x="253" y="1617" type="line"/>
    </contour>
    <contour>
      <point x="223" y="1052" type="move" name="_top"/>
    </contour>
  </outline>
</glyph>
<glyph name="uni02C9" format="1">
  <advance width="600"/>
  <unicode hex="02C9"/>
  <outline>
    <contour>
      <point x="43" y="1285" type="line"/>
      <point x="559" y="1285" type="line"/>
      <point x="559" y="1371" type="line"/>
      <point x="43" y="1371" type="line"/>
    </contour>
    <contour>
      <point x="321" y="1052" type="move" name="_top"/>
    </contour>
  </outline>
</glyph>
<glyph name="breve" format="1">
  <advance width="817.4"/>
  <unicode hex="02D8"/>
  <outline>
    <contour>
      <point x="402" y="1258" type="curve" smooth="yes"/>
      <point x="502" y="1258"/>
      <point x="603" y="1315"/>
      <point x="603" y="1475" type="curve"/>
      <point x="555" y="1475" type="line"/>
      <point x="555" y="1354"/>
      <point x="464" y="1308"/>
      <point x="402" y="1308" type="curve" smooth="yes"/>
      <point x="341" y="1308"/>
      <point x="258" y="1354"/>
      <point x="258" y="1475" type="curve"/>
      <point x="208" y="1475" type="line"/>
      <point x="208" y="1314"/>
      <point x="304" y="1258"/>
    </contour>
    <contour>
      <point x="409" y="1052" type="move" name="_top"/>
    </contour>
  </outline>
</glyph>
<glyph name="ogonek" format="1">
  <advance width="618"/>
  <unicode hex="02DB"/>
  <outline>
    <contour>
      <point x="310" y="-387" type="curve" smooth="yes"/>
      <point x="350" y="-387"/>
      <point x="390" y="-378"/>
      <point x="420" y="-363" type="curve"/>
      <point x="420" y="-363"/>
      <point x="422" y="-314"/>
      <point x="421" y="-314" type="curve" smooth="yes"/>
      <point x="394" y="-326"/>
      <point x="364" y="-333"/>
      <point x="336" y="-333" type="curve" smooth="yes"/>
      <point x="281" y="-333"/>
      <point x="234" y="-305"/>
      <point x="234" y="-236" type="curve" smooth="yes"/>
      <point x="234" y="-147"/>
      <point x="317" y="-58"/>
      <point x="406" y="0" type="curve"/>
      <point x="349" y="0" type="line"/>
      <point x="223" y="-72"/>
      <point x="159" y="-176"/>
      <point x="159" y="-262" type="curve" smooth="yes"/>
      <point x="159" y="-353"/>
      <point x="234" y="-387"/>
    </contour>
    <contour>
      <point x="375" y="0" type="move" name="_ogonek"/>
    </contour>
  </outline>
</glyph>
<glyph name="tilde" format="1">
  <advance width="1006.800"/>
  <unicode hex="02DC"/>
  <outline>
    <contour>
      <point x="195" y="1329" type="curve"/>
      <point x="244" y="1329" type="line"/>
      <point x="246" y="1398"/>
      <point x="271" y="1429"/>
      <point x="307" y="1429" type="curve" smooth="yes"/>
      <point x="386" y="1429"/>
      <point x="522" y="1329"/>
      <point x="621" y="1329" type="curve" smooth="yes"/>
      <point x="658" y="1329"/>
      <point x="729" y="1333"/>
      <point x="729" y="1491" type="curve"/>
      <point x="675" y="1491" type="line"/>
      <point x="671" y="1423"/>
      <point x="649" y="1400"/>
      <point x="614" y="1400" type="curve" smooth="yes"/>
      <point x="546" y="1400"/>
      <point x="428" y="1492"/>
      <point x="322" y="1492" type="curve" smooth="yes"/>
      <point x="271" y="1492"/>
      <point x="195" y="1482"/>
    </contour>
    <contour>
      <point x="503" y="1052" type="move" name="_top"/>
    </contour>
  </outline>
</glyph>
<glyph name="hungarumlaut" format="1">
  <advance width="660.600"/>
  <unicode hex="02DD"/>
  <outline>
    <contour>
      <point x="188" y="1237" type="line"/>
      <point x="244" y="1237" type="line"/>
      <point x="369" y="1539" type="line"/>
      <point x="297" y="1539" type="line"/>
    </contour>
    <contour>
      <point x="377" y="1237" type="line"/>
      <point x="436" y="1237" type="line"/>
      <point x="612" y="1539" type="line"/>
      <point x="529" y="1539" type="line"/>
    </contour>
    <contour>
      <point x="296" y="1052" type="move" name="_top"/>
    </contour>
  </outline>
</glyph>
<glyph name="uni0307" format="1">
  <advance width="259"/>
  <unicode hex="0307"/>
  <outline>
    <contour>
      <point x="207" y="1449" type="curve" smooth="yes"/>
      <point x="207" y="1496"/>
      <point x="186" y="1520"/>
      <point x="138" y="1520" type="curve" smooth="yes"/>
      <point x="89" y="1520"/>
      <point x="68" y="1496"/>
      <point x="68" y="1449" type="curve" smooth="yes"/>
      <point x="68" y="1402"/>
      <point x="89" y="1378"/>
      <point x="138" y="1378" type="curve" smooth="yes"/>
      <point x="186" y="1378"/>
      <point x="207" y="1402"/>
    </contour>
  </outline>
</glyph>
<glyph name="dblgravecomb" format="1">
  <advance width="695"/>
  <unicode hex="030F"/>
  <outline>
    <contour>
      <point x="254" y="1237" type="line"/>
      <point x="313" y="1237" type="line"/>
      <point x="161" y="1539" type="line"/>
      <point x="78" y="1539" type="line"/>
    </contour>
    <contour>
      <point x="446" y="1237" type="line"/>
      <point x="502" y="1237" type="line"/>
      <point x="393" y="1539" type="line"/>
      <point x="321" y="1539" type="line"/>
    </contour>
    <contour>
      <point x="398" y="1052" type="move" name="_top"/>
    </contour>
  </outline>
</glyph>
<glyph name="breveinvertedcomb" format="1">
  <advance width="728.2"/>
  <unicode hex="0311"/>
  <outline>
    <contour>
      <point x="178" y="1258" type="curve"/>
      <point x="228" y="1258" type="line"/>
      <point x="228" y="1379"/>
      <point x="311" y="1425"/>
      <point x="372" y="1425" type="curve" smooth="yes"/>
      <point x="434" y="1425"/>
      <point x="525" y="1379"/>
      <point x="525" y="1258" type="curve"/>
      <point x="573" y="1258" type="line"/>
      <point x="573" y="1418"/>
      <point x="472" y="1475"/>
      <point x="372" y="1475" type="curve" smooth="yes"/>
      <point x="274" y="1475"/>
      <point x="178" y="1419"/>
    </contour>
    <contour>
      <point x="379" y="1052" type="move" name="_top"/>
    </contour>
  </outline>
</glyph>
<glyph name="endash" format="1">
  <advance width="1325"/>
  <unicode hex="2013"/>
  <outline>
    <contour>
      <point x="173" y="579" type="line"/>
      <point x="1152" y="579" type="line"/>
      <point x="1152" y="670" type="line"/>
      <point x="173" y="670" type="line"/>
    </contour>
  </outline>
</glyph>
<glyph name="quoteleft" format="1">
  <advance width="520.8"/>
  <unicode hex="2018"/>
  <outline>
    <contour>
      <point x="350" y="1456" type="line"/>
      <point x="295" y="1456" type="line"/>
      <point x="198" y="1007" type="line"/>
      <point x="295" y="1007" type="line"/>
    </contour>
  </outline>
</glyph>
<glyph name="quoteright" format="1">
  <advance width="520.8"/>
  <unicode hex="2019"/>
  <outline>
    <contour>
      <point x="198" y="1007" type="line"/>
      <point x="253" y="1007" type="line"/>
      <point x="350" y="1456" type="line"/>
      <point x="253" y="1456" type="line"/>
    </contour>
  </outline>
</glyph>
<glyph name="quotedblbase" format="1">
  <advance width="586"/>
  <unicode hex="201E"/>
  <outline>
    <contour>
      <point x="113" y="-253" type="line"/>
      <point x="151" y="-253" type="line"/>
      <point x="241" y="179" type="line"/>
      <point x="177" y="179" type="line"/>
    </contour>
    <contour>
      <point x="330" y="-253" type="line"/>
      <point x="362" y="-253" type="line"/>
      <point x="461" y="179" type="line"/>
      <point x="389" y="179" type="line"/>
    </contour>
  </outline>
</glyph>
<glyph name="guilsinglleft" format="1">
  <advance width="663.400"/>
  <unicode hex="2039"/>
  <outline>
    <contour>
      <point x="452" y="138" type="line"/>
      <point x="526" y="138" type="line"/>
      <point x="212" y="566" type="line"/>
      <point x="530" y="1007" type="line"/>
      <point x="455" y="1007" type="line"/>
      <point x="132" y="567" type="line"/>
    </contour>
  </outline>
</glyph>
<glyph name="uni2113" format="1">
  <advance width="1089"/>
  <unicode hex="2113"/>
  <outline>
    <contour>
      <point x="493" y="-20" type="curve" smooth="yes"/>
      <point x="697" y="-32"/>
      <point x="836" y="98"/>
      <point x="836" y="98" type="curve"/>
      <point x="817" y="148" type="line"/>
      <point x="705" y="76"/>
      <point x="616" y="39"/>
      <point x="523" y="46" type="curve" smooth="yes"/>
      <point x="383" y="57"/>
      <point x="377" y="190"/>
      <point x="433" y="417" type="curve" smooth="yes"/>
      <point x="487" y="636" type="line"/>
      <point x="443" y="566" type="line"/>
      <point x="779" y="865" type="line" smooth="yes"/>
      <point x="1013" y="1073"/>
      <point x="1102" y="1215"/>
      <point x="1102" y="1425" type="curve" smooth="yes"/>
      <point x="1102" y="1606"/>
      <point x="994" y="1670"/>
      <point x="881" y="1671" type="curve" smooth="yes"/>
      <point x="777" y="1671"/>
      <point x="668" y="1631"/>
      <point x="604" y="1396" type="curve" smooth="yes"/>
      <point x="384" y="585" type="line"/>
      <point x="423" y="637" type="line"/>
      <point x="91" y="379" type="line"/>
      <point x="125" y="334" type="line"/>
      <point x="402" y="550" type="line"/>
      <point x="380" y="550" type="line"/>
      <point x="249" y="155"/>
      <point x="332" y="-11"/>
    </contour>
    <contour>
      <point x="489" y="650" type="line"/>
      <point x="479" y="675" type="line"/>
      <point x="751" y="916" type="line" smooth="yes"/>
      <point x="983" y="1122"/>
      <point x="1036" y="1285"/>
      <point x="1036" y="1423" type="curve" smooth="yes"/>
      <point x="1036" y="1536"/>
      <point x="993" y="1611"/>
      <point x="881" y="1611" type="curve" smooth="yes"/>
      <point x="785" y="1611"/>
      <point x="713" y="1556"/>
      <point x="677" y="1414" type="curve" smooth="yes"/>
    </contour>
  </outline>
</glyph>
<glyph name="trademark" format="1">
  <advance width="1889.400"/>
  <unicode hex="2122"/>
  <outline>
    <contour>
      <point x="886" y="552" type="line"/>
      <point x="920" y="552" type="line"/>
      <point x="930" y="1431" type="line"/>
      <point x="1298" y="653" type="line"/>
      <point x="1339" y="653" type="line"/>
      <point x="1676" y="1430" type="line"/>
      <point x="1686" y="552" type="line"/>
      <point x="1726" y="552" type="line"/>
      <point x="1716" y="1478" type="line"/>
      <point x="1660" y="1478" type="line"/>
      <point x="1318" y="688" type="line"/>
      <point x="947" y="1478" type="line"/>
      <point x="896" y="1478" type="line"/>
    </contour>
    <contour>
      <point x="369" y="552" type="line"/>
      <point x="408" y="552" type="line"/>
      <point x="408" y="1448" type="line"/>
      <point x="691" y="1448" type="line"/>
      <point x="691" y="1478" type="line"/>
      <point x="104" y="1478" type="line"/>
      <point x="103" y="1448" type="line"/>
      <point x="369" y="1448" type="line"/>
    </contour>
  </outline>
</glyph>
<glyph name="estimated" format="1">
  <advance width="600"/>
  <unicode hex="212E"/>
  <outline>
    <contour>
      <point x="99" y="402" type="curve" smooth="yes"/>
      <point x="99" y="162"/>
      <point x="240" y="-18"/>
      <point x="526" y="-18" type="curve" smooth="yes"/>
      <point x="681" y="-18"/>
      <point x="782" y="49"/>
      <point x="857" y="138" type="curve"/>
      <point x="818" y="176" type="line"/>
      <point x="745" y="97"/>
      <point x="661" y="37"/>
      <point x="526" y="37" type="curve" smooth="yes"/>
      <point x="354" y="37"/>
      <point x="263" y="180"/>
      <point x="262" y="387" type="curve"/>
      <point x="863" y="387" type="line"/>
      <point x="863" y="647"/>
      <point x="752" y="820"/>
      <point x="513" y="820" type="curve" smooth="yes"/>
      <point x="271" y="820"/>
      <point x="99" y="641"/>
    </contour>
    <contour>
      <point x="779" y="447" type="curve"/>
      <point x="264" y="447" type="line"/>
      <point x="275" y="643"/>
      <point x="388" y="775"/>
      <point x="517" y="775" type="curve" smooth="yes"/>
      <point x="674" y="775"/>
      <point x="779" y="623"/>
    </contour>
  </outline>
</glyph>
<glyph name="partialdiff" format="1">
  <advance width="1182"/>
  <unicode hex="2202"/>
  <outline>
    <contour>
      <point x="483" y="-19" type="curve" smooth="yes"/>
      <point x="811" y="-19"/>
      <point x="1026" y="380"/>
      <point x="1026" y="906" type="curve" smooth="yes"/>
      <point x="1026" y="1450"/>
      <point x="688" y="1698"/>
      <point x="244" y="1482" type="curve"/>
      <point x="264" y="1430" type="line"/>
      <point x="735" y="1634"/>
      <point x="935" y="1339"/>
      <point x="946" y="917" type="curve"/>
      <point x="211" y="917"/>
      <point x="-67" y="-19"/>
    </contour>
    <contour>
      <point x="483" y="34" type="curve" smooth="yes"/>
      <point x="76" y="34"/>
      <point x="334" y="860"/>
      <point x="946" y="860" type="curve"/>
      <point x="944" y="454"/>
      <point x="751" y="34"/>
    </contour>
  </outline>
</glyph>
<glyph name="uni2206" format="1">
  <advance width="1358"/>
  <unicode hex="2206"/>
  <outline>
    <contour>
      <point x="638" y="1500" type="line"/>
      <point x="106" y="83" type="line"/>
      <point x="106" y="0" type="line"/>
      <point x="1255" y="0" type="line"/>
      <point x="1255" y="83" type="line"/>
      <point x="724" y="1500" type="line"/>
    </contour>
    <contour>
      <point x="706" y="1314" type="line"/>
      <point x="1149" y="99" type="line"/>
      <point x="188" y="99" type="line"/>
      <point x="640" y="1314" type="line"/>
      <point x="672" y="1429" type="line"/>
    </contour>
  </outline>
</glyph>
<glyph name="product" format="1">
  <advance width="1428"/>
  <unicode hex="220F"/>
  <outline>
    <contour>
      <point x="223" y="1456" type="line"/>
      <point x="223" y="0" type="line"/>
      <point x="309" y="0" type="line"/>
      <point x="309" y="1362" type="line"/>
      <point x="1188" y="1362" type="line"/>
      <point x="1188" y="0" type="line"/>
      <point x="1274" y="0" type="line"/>
      <point x="1274" y="1456" type="line"/>
    </contour>
  </outline>
</glyph>
<glyph name="radical" format="1">
  <advance width="1241"/>
  <unicode hex="221A"/>
  <outline>
    <contour>
      <point x="1072" y="1672" type="line"/>
      <point x="655" y="43" type="line"/>
      <point x="597" y="206" type="line"/>
      <point x="348" y="863" type="line"/>
      <point x="109" y="811" type="line"/>
      <point x="120" y="754" type="line"/>
      <point x="258" y="783" type="line"/>
      <point x="634" y="-162" type="line"/>
      <point x="702" y="-162" type="line"/>
      <point x="1161" y="1672" type="line"/>
    </contour>
  </outline>
</glyph>
<glyph name="lessequal" format="1">
  <advance width="1254"/>
  <unicode hex="2264"/>
  <outline>
    <contour>
      <point x="1046" y="229" type="line"/>
      <point x="1046" y="310" type="line"/>
      <point x="299" y="750" type="line"/>
      <point x="1046" y="1213" type="line"/>
      <point x="1046" y="1301" type="line"/>
      <point x="179" y="774" type="line"/>
      <point x="179" y="723" type="line"/>
    </contour>
    <contour>
      <point x="123" y="0" type="line"/>
      <point x="1092" y="0" type="line"/>
      <point x="1092" y="83" type="line"/>
      <point x="123" y="83" type="line"/>
    </contour>
  </outline>
</glyph>
<glyph name="lozenge" format="1">
  <advance width="1191"/>
  <unicode hex="25CA"/>
  <outline>
    <contour>
      <point x="536" y="1605" type="line"/>
      <point x="102" y="781" type="line"/>
      <point x="530" y="-40" type="line"/>
      <point x="608" y="-40" type="line"/>
      <point x="1041" y="784" type="line"/>
      <point x="616" y="1605" type="line"/>
    </contour>
    <contour>
      <point x="956" y="780" type="line"/>
      <point x="566" y="27" type="line"/>
      <point x="188" y="783" type="line"/>
      <point x="580" y="1530" type="line"/>
    </contour>
  </outline>
</glyph>
